<svg width="265" height="47" viewBox="0 0 265 47" fill="none" xmlns="http://www.w3.org/2000/svg">
<path d="M30.8438 20.0625C30.8438 20.625 30.6406 21.1328 30.2344 21.5859C30.0938 21.7422 29.875 21.9531 29.5781 22.2188C29.2812 22.4688 29.0156 22.7109 28.7812 22.9453L26.625 25.1016C26.2188 25.5078 25.8359 25.875 25.4766 26.2031C25.1328 26.5156 24.8281 26.7891 24.5625 27.0234C24.1094 27.3984 23.5625 27.8516 22.9219 28.3828C22.2969 28.8984 21.5703 29.5 20.7422 30.1875C19.1172 31.5312 17.6172 32.6328 16.2422 33.4922C14.8672 34.3359 13.3906 35.0156 11.8125 35.5312C10.25 36.0312 8.59375 36.2812 6.84375 36.2812C5.76562 36.3125 4.79688 36.125 3.9375 35.7188C3.09375 35.3125 2.375 34.7656 1.78125 34.0781C1.20312 33.375 0.757812 32.5547 0.445312 31.6172C0.148438 30.6797 0.0078125 29.6875 0.0234375 28.6406C0.0234375 26.5625 0.460938 24.4844 1.33594 22.4062C2.22656 20.3281 3.40625 18.2812 4.875 16.2656C5.67188 15.2031 6.63281 14.1875 7.75781 13.2188C8.86719 12.25 9.875 11.7656 10.7812 11.7656C11.2656 11.7656 11.8203 12.1719 12.4453 12.9844C12.7578 13.3906 13.0547 13.8281 13.3359 14.2969C13.6172 14.75 13.875 15.2344 14.1094 15.75C14.5781 16.7656 14.8125 17.5 14.8125 17.9531C14.8125 18.4062 14.6719 18.9922 14.3906 19.7109C14.1094 20.4297 13.7734 20.7891 13.3828 20.7891C12.8203 20.7891 12.3516 20.4062 11.9766 19.6406C11.7891 19.25 11.6484 18.9219 11.5547 18.6562C11.4766 18.375 11.3828 18.0781 11.2734 17.7656C10.9141 16.8281 10.6094 16.1562 10.3594 15.75C9.32812 15.9375 8.46875 16.4453 7.78125 17.2734C7.45312 17.6797 7.10938 18.1719 6.75 18.75C6.40625 19.3125 6.03906 19.9531 5.64844 20.6719C5.33594 21.2344 5.04688 21.8672 4.78125 22.5703C4.51562 23.2734 4.28906 24 4.10156 24.75C3.91406 25.4844 3.76562 26.2266 3.65625 26.9766C3.54688 27.7109 3.49219 28.3984 3.49219 29.0391C3.49219 29.9453 3.88281 30.8281 4.66406 31.6875C5.46094 32.5156 6.32031 32.9297 7.24219 32.9297C9.24219 32.9297 11.1406 32.5781 12.9375 31.875C14.7344 31.1719 16.4609 30.2344 18.1172 29.0625C19.7578 27.9219 21.4219 26.5859 23.1094 25.0547C23.9531 24.2891 24.75 23.5703 25.5 22.8984C26.2656 22.2109 26.9922 21.5547 27.6797 20.9297C28.8203 19.9297 29.7656 19.4297 30.5156 19.4297C30.7344 19.4297 30.8438 19.6406 30.8438 20.0625ZM57.5522 15.5156C57.5522 15.7812 57.4584 16.0703 57.2709 16.3828C57.0834 16.6953 56.8412 17.0156 56.5444 17.3438C56.2475 17.6562 55.9116 17.9688 55.5366 18.2812C55.1616 18.5781 54.7866 18.8594 54.4116 19.125C54.0366 19.375 53.6772 19.6016 53.3334 19.8047C53.0053 19.9922 52.7319 20.1328 52.5131 20.2266C52.1069 20.3984 51.5678 20.5547 50.8959 20.6953C50.2397 20.8203 49.5522 20.9297 48.8334 21.0234C48.1147 21.1172 47.4116 21.1953 46.7241 21.2578C46.0366 21.3047 45.4584 21.3281 44.9897 21.3281C44.8022 21.3281 44.5444 21.2969 44.2162 21.2344C43.8881 21.1719 43.5522 21.0938 43.2084 21C42.8647 20.9062 42.5366 20.8047 42.2241 20.6953C41.9272 20.5703 41.7084 20.4453 41.5678 20.3203C41.7084 20.9141 41.8334 21.5156 41.9428 22.125C42.0522 22.7188 42.1069 23.3359 42.1069 23.9766C42.1069 24.2578 42.0678 24.6016 41.9897 25.0078C41.9272 25.4141 41.8334 25.8281 41.7084 26.25C41.5991 26.6562 41.4741 27.0547 41.3334 27.4453C41.1928 27.8203 41.0444 28.1328 40.8881 28.3828C40.4819 29.0703 40.06 29.6953 39.6225 30.2578C39.2006 30.8203 38.7162 31.3438 38.1694 31.8281C37.6381 32.2969 37.0366 32.7422 36.3647 33.1641C35.6928 33.5859 34.9194 33.9922 34.0444 34.3828C33.1069 34.7891 32.1616 35.0781 31.2084 35.25C30.2709 35.4062 29.2944 35.4844 28.2787 35.4844C27.6381 35.4844 27.0678 35.2969 26.5678 34.9219C26.0678 34.5469 25.6459 34.0469 25.3022 33.4219C24.9584 32.7812 24.6928 32.0469 24.5053 31.2188C24.3334 30.3906 24.2475 29.5234 24.2475 28.6172C24.2475 28.3828 24.2631 28.0938 24.2944 27.75C24.3412 27.4062 24.3959 27.0547 24.4584 26.6953C24.5366 26.3359 24.6147 25.9922 24.6928 25.6641C24.7709 25.3359 24.8491 25.0547 24.9272 24.8203C25.1459 24.1641 25.4584 23.4141 25.8647 22.5703C26.2709 21.7266 26.7475 20.8672 27.2944 19.9922C27.8412 19.1016 28.4506 18.2344 29.1225 17.3906C29.7944 16.5312 30.4975 15.7656 31.2319 15.0938C31.9662 14.4219 32.7319 13.8828 33.5287 13.4766C34.3256 13.0703 35.1225 12.8672 35.9194 12.8672C36.185 12.8672 36.3959 12.9062 36.5522 12.9844C36.7241 13.0625 36.8647 13.1641 36.9741 13.2891C37.0991 13.4141 37.2084 13.5469 37.3022 13.6875C37.3959 13.8281 37.5053 13.9688 37.6303 14.1094C37.6772 14.1875 37.7475 14.2266 37.8412 14.2266C37.9662 14.2266 38.1225 14.1953 38.31 14.1328C38.4975 14.0703 38.7084 14.0391 38.9428 14.0391C39.2397 14.0391 39.6069 14.2344 40.0444 14.625C40.4819 15 40.935 15.4219 41.4037 15.8906C41.8881 16.3438 42.3647 16.7656 42.8334 17.1562C43.3178 17.5312 43.7475 17.7188 44.1225 17.7188C44.5444 17.7188 44.9975 17.7109 45.4819 17.6953C45.9662 17.6797 46.4584 17.6562 46.9584 17.625C47.4584 17.5781 47.9506 17.5234 48.435 17.4609C48.9194 17.3984 49.3647 17.3281 49.7709 17.25C49.8803 17.2188 50.1381 17.1484 50.5444 17.0391C50.9506 16.9297 51.4194 16.8047 51.9506 16.6641C52.4975 16.5078 53.0678 16.3438 53.6616 16.1719C54.2709 16 54.8334 15.8438 55.3491 15.7031C55.8647 15.5469 56.2866 15.4219 56.6147 15.3281C56.9584 15.2344 57.1459 15.1875 57.1772 15.1875C57.2709 15.1875 57.3569 15.2109 57.435 15.2578C57.5131 15.3047 57.5522 15.3906 57.5522 15.5156ZM39.2709 19.2656C39.1772 18.9531 38.9897 18.6484 38.7084 18.3516C38.4428 18.0547 38.1303 17.7891 37.7709 17.5547C37.4272 17.3203 37.06 17.1328 36.6694 16.9922C36.2787 16.8359 35.9116 16.7578 35.5678 16.7578C35.2866 16.7578 35.0131 16.8047 34.7475 16.8984C34.4819 16.9922 34.2162 17.1172 33.9506 17.2734C33.7006 17.4141 33.4584 17.5781 33.2241 17.7656C32.9897 17.9375 32.7709 18.1016 32.5678 18.2578C31.9584 18.7734 31.3725 19.5 30.81 20.4375C30.2631 21.3594 29.7787 22.3594 29.3569 23.4375C28.9506 24.5 28.6225 25.5625 28.3725 26.625C28.1225 27.6875 27.9975 28.6094 27.9975 29.3906C27.9975 29.7344 28.0522 30.0703 28.1616 30.3984C28.2866 30.7109 28.4584 30.9922 28.6772 31.2422C28.8959 31.4766 29.1537 31.6719 29.4506 31.8281C29.7475 31.9688 30.0756 32.0391 30.435 32.0391C31.3725 32.0391 32.2397 31.875 33.0366 31.5469C33.8334 31.2031 34.5522 30.7422 35.1928 30.1641C35.8491 29.5703 36.4272 28.8672 36.9272 28.0547C37.4272 27.2422 37.8491 26.3672 38.1928 25.4297C38.5366 24.4766 38.7944 23.4766 38.9662 22.4297C39.1537 21.3828 39.2553 20.3281 39.2709 19.2656ZM92.7684 18.375C92.7684 18.9688 92.6356 19.5703 92.37 20.1797C92.1044 20.7891 91.7997 21.3594 91.4559 21.8906C91.0184 22.5469 90.495 23.2891 89.8856 24.1172C89.2762 24.9297 88.5966 25.7578 87.8466 26.6016C87.1122 27.4453 86.3153 28.2734 85.4559 29.0859C84.6122 29.8828 83.7294 30.5938 82.8075 31.2188C81.9012 31.8438 80.9716 32.3516 80.0184 32.7422C79.0653 33.1172 78.12 33.3047 77.1825 33.3047C76.1669 33.3047 75.3309 33.0938 74.6747 32.6719C74.0341 32.25 73.5028 31.6953 73.0809 31.0078C72.6747 30.3203 72.3544 29.5391 72.12 28.6641C71.9012 27.7734 71.6981 26.8672 71.5106 25.9453C71.2919 24.8203 71.0731 23.8672 70.8544 23.0859C70.6512 22.3047 70.4325 21.6719 70.1981 21.1875C69.9794 20.6875 69.745 20.3281 69.495 20.1094C69.245 19.8906 68.9794 19.7812 68.6981 19.7812C68.1512 19.7812 67.5809 20.0234 66.9872 20.5078C66.3934 20.9922 65.7684 21.6484 65.1122 22.4766C64.4559 23.2891 63.7606 24.2266 63.0262 25.2891C62.3075 26.3516 61.5497 27.4531 60.7528 28.5938C60.2684 29.2812 59.7684 29.9453 59.2528 30.5859C58.7372 31.2266 58.2294 31.8125 57.7294 32.3438C57.245 32.875 56.7841 33.3359 56.3466 33.7266C55.9091 34.1016 55.5262 34.375 55.1981 34.5469C54.8544 34.4688 54.5497 34.3672 54.2841 34.2422C54.0184 34.1016 53.7997 33.8906 53.6278 33.6094C53.4559 33.3125 53.3231 32.9219 53.2294 32.4375C53.1356 31.9531 53.0887 31.3203 53.0887 30.5391C53.0887 29.9453 53.12 29.2109 53.1825 28.3359C53.2606 27.4609 53.3544 26.5547 53.4637 25.6172C53.5887 24.6641 53.7137 23.7422 53.8387 22.8516C53.9794 21.9453 54.12 21.1719 54.2606 20.5312C54.3544 20.1094 54.4247 19.6875 54.4716 19.2656C54.5341 18.8438 54.5887 18.4531 54.6356 18.0938C54.6981 17.7188 54.7528 17.3906 54.7997 17.1094C54.8622 16.8125 54.9403 16.5703 55.0341 16.3828C55.3466 15.7422 55.6591 15.2266 55.9716 14.8359C56.2841 14.4297 56.6434 14.2266 57.0497 14.2266C57.1747 14.2266 57.3387 14.2422 57.5419 14.2734C57.7606 14.3047 57.9637 14.375 58.1512 14.4844C58.3544 14.5781 58.5262 14.7188 58.6669 14.9062C58.8231 15.0938 58.9012 15.3359 58.9012 15.6328C58.9012 16.3828 58.7762 17.25 58.5262 18.2344C58.2762 19.2188 58.0262 20.2266 57.7762 21.2578C57.6825 21.6797 57.5653 22.1641 57.4247 22.7109C57.2841 23.2422 57.1512 23.7891 57.0262 24.3516C56.9169 24.9141 56.8153 25.4688 56.7216 26.0156C56.6434 26.5469 56.6044 27.0156 56.6044 27.4219C56.6044 27.4844 56.5966 27.5859 56.5809 27.7266C56.5809 27.8672 56.5731 28.0156 56.5575 28.1719C56.5575 28.3281 56.5575 28.4766 56.5575 28.6172C56.5575 28.7578 56.5731 28.8672 56.6044 28.9453C57.12 28.5859 57.6669 28.0234 58.245 27.2578C58.8231 26.4922 59.4012 25.6641 59.9794 24.7734C60.5731 23.8672 61.1512 22.9688 61.7137 22.0781C62.2762 21.1719 62.8075 20.4062 63.3075 19.7812C63.8231 19.1094 64.3075 18.5156 64.7606 18C65.2137 17.4844 65.6825 17.0547 66.1669 16.7109C66.6512 16.3516 67.1669 16.0859 67.7137 15.9141C68.2762 15.7266 68.9247 15.6328 69.6591 15.6328C70.4716 15.6328 71.1434 15.8438 71.6747 16.2656C72.2216 16.6719 72.6669 17.2109 73.0106 17.8828C73.37 18.5547 73.6512 19.3281 73.8544 20.2031C74.0575 21.0781 74.2294 21.9688 74.37 22.875C74.5262 23.8438 74.6903 24.7344 74.8622 25.5469C75.0341 26.3438 75.2606 27.0312 75.5419 27.6094C75.8387 28.1719 76.2059 28.6172 76.6434 28.9453C77.0809 29.2578 77.6434 29.4141 78.3309 29.4141C79.2684 29.4141 80.1825 29.1562 81.0731 28.6406C81.9794 28.125 82.9716 27.375 84.0497 26.3906C85.8466 24.7656 87.3778 23.2188 88.6434 21.75C89.9247 20.2812 91.0966 18.9531 92.1591 17.7656C92.2059 17.8438 92.3153 17.9141 92.4872 17.9766C92.6747 18.0391 92.7684 18.1719 92.7684 18.375ZM126.93 23.1094C127.024 23.0781 127.078 23.0625 127.094 23.0625C127.203 23.0625 127.258 23.1562 127.258 23.3438C127.258 23.5312 127.211 23.7734 127.118 24.0703C127.024 24.3516 126.883 24.6562 126.696 24.9844C126.524 25.3125 126.305 25.6406 126.039 25.9688C125.774 26.2969 125.477 26.5938 125.149 26.8594C124.414 27.4531 123.602 28.0156 122.711 28.5469C121.836 29.0625 120.914 29.5156 119.946 29.9062C118.977 30.2969 117.977 30.6016 116.946 30.8203C115.914 31.0391 114.875 31.1484 113.828 31.1484C112.703 31.1484 111.719 30.9766 110.875 30.6328C110.032 30.2891 109.305 29.8359 108.696 29.2734C108.086 28.7109 107.578 28.0703 107.172 27.3516C106.766 26.6328 106.43 25.8984 106.164 25.1484C105.899 24.3984 105.688 23.6641 105.532 22.9453C105.375 22.2266 105.243 21.5859 105.133 21.0234C105.039 20.4609 104.953 20.0078 104.875 19.6641C104.813 19.3203 104.727 19.1484 104.618 19.1484C104.243 19.1484 103.852 19.3672 103.446 19.8047C103.039 20.2422 102.618 20.8203 102.18 21.5391C101.758 22.2578 101.305 23.0781 100.821 24C100.352 24.9062 99.8597 25.8438 99.3441 26.8125C98.8441 27.7656 98.3206 28.7031 97.7738 29.625C97.2425 30.5312 96.68 31.3438 96.0863 32.0625C95.5081 32.7812 94.9066 33.3594 94.2816 33.7969C93.6722 34.2344 93.0394 34.4531 92.3831 34.4531C91.7269 34.4531 91.1956 34.2031 90.7894 33.7031C90.3988 33.2031 90.0941 32.5625 89.8753 31.7812C89.6566 30.9844 89.5081 30.0938 89.43 29.1094C89.3675 28.125 89.3363 27.1484 89.3363 26.1797C89.3363 25.3203 89.3519 24.5078 89.3831 23.7422C89.4144 22.9766 89.43 22.3203 89.43 21.7734C89.43 21.5547 89.4222 21.3672 89.4066 21.2109C89.3909 21.0391 89.3753 20.8828 89.3597 20.7422C89.3441 20.6016 89.3284 20.4609 89.3128 20.3203C89.2972 20.1797 89.2894 20.0156 89.2894 19.8281C89.2894 19.2969 89.3597 18.7734 89.5003 18.2578C89.6409 17.7422 89.8206 17.2891 90.0394 16.8984C90.2581 16.4922 90.5003 16.1641 90.7659 15.9141C91.0316 15.6641 91.2972 15.5391 91.5628 15.5391C91.8441 15.5391 92.1097 15.5781 92.3597 15.6562C92.6097 15.7344 92.8284 15.8828 93.0159 16.1016C93.2191 16.3203 93.3753 16.625 93.4847 17.0156C93.6097 17.3906 93.6722 17.875 93.6722 18.4688C93.6722 19.1875 93.6331 20.0156 93.555 20.9531C93.4769 21.875 93.3909 22.8047 93.2972 23.7422C93.2034 24.6797 93.1175 25.5703 93.0394 26.4141C92.9613 27.2578 92.9222 27.9609 92.9222 28.5234C92.9222 29.2891 93.0159 29.6719 93.2034 29.6719C93.5784 29.6719 93.9534 29.5 94.3284 29.1562C94.7191 28.8125 95.1019 28.3516 95.4769 27.7734C95.8675 27.1953 96.2581 26.5234 96.6488 25.7578C97.055 24.9922 97.4534 24.1797 97.8441 23.3203C98.5628 21.7266 99.2425 20.3438 99.8831 19.1719C100.539 17.9844 101.211 17 101.899 16.2188C102.586 15.4219 103.328 14.8359 104.125 14.4609C104.938 14.0703 105.868 13.875 106.914 13.875C107.086 13.875 107.243 13.9375 107.383 14.0625C107.524 14.1719 107.641 14.3281 107.735 14.5312C107.828 14.7188 107.899 14.9375 107.946 15.1875C108.008 15.4219 108.039 15.6562 108.039 15.8906C108.039 17.25 108.086 18.4766 108.18 19.5703C108.289 20.6484 108.461 21.6094 108.696 22.4531C108.93 23.2969 109.235 24.0234 109.61 24.6328C109.985 25.2422 110.438 25.75 110.969 26.1562C111.172 26.3281 111.453 26.4922 111.813 26.6484C112.172 26.7891 112.563 26.9141 112.985 27.0234C113.422 27.1172 113.86 27.1953 114.297 27.2578C114.75 27.3203 115.157 27.3516 115.516 27.3516C115.938 27.3516 116.477 27.3047 117.133 27.2109C117.805 27.1172 118.524 26.9688 119.289 26.7656C120.055 26.5625 120.836 26.3125 121.633 26.0156C122.43 25.7031 123.18 25.3359 123.883 24.9141C124.118 24.7734 124.336 24.6406 124.539 24.5156C124.743 24.3906 124.953 24.2656 125.172 24.1406C125.407 24 125.664 23.8516 125.946 23.6953C126.227 23.5234 126.555 23.3281 126.93 23.1094ZM151.318 20.0156C151.318 20.25 151.146 20.6641 150.802 21.2578C149.99 22.4297 149.076 23.6016 148.06 24.7734C147.06 25.9453 145.99 27.0625 144.849 28.125C143.724 29.1719 142.545 30.1562 141.31 31.0781C140.092 31.9844 138.857 32.7734 137.607 33.4453C136.357 34.1016 135.107 34.6094 133.857 34.9688C132.623 35.3281 131.427 35.5 130.271 35.4844C127.771 35.4844 125.826 34.7578 124.435 33.3047C123.06 31.8516 122.373 29.6562 122.373 26.7188C122.373 24.2656 122.748 21.8828 123.498 19.5703C124.263 17.2578 125.56 15.0312 127.388 12.8906C127.732 12.5156 128.115 12.1563 128.537 11.8125C128.974 11.4687 129.427 11.1641 129.896 10.8984C130.381 10.6328 130.873 10.4219 131.373 10.2656C131.888 10.1094 132.404 10.0156 132.92 9.98438C133.045 9.98438 133.217 10 133.435 10.0312C133.654 10.0625 133.888 10.1172 134.138 10.1953C134.388 10.2734 134.631 10.375 134.865 10.5C135.099 10.6094 135.287 10.75 135.427 10.9219C135.865 11.4219 136.209 11.9375 136.459 12.4688C136.724 13 136.873 13.5859 136.904 14.2266C136.935 14.9453 136.849 15.6562 136.646 16.3594C136.459 17.0469 136.131 17.7578 135.662 18.4922C135.209 19.2109 134.607 19.9609 133.857 20.7422C133.107 21.5078 132.201 22.3359 131.138 23.2266C130.467 23.7891 129.717 24.4141 128.888 25.1016C128.076 25.7734 127.092 26.4844 125.935 27.2344C125.935 28.75 126.388 29.9062 127.295 30.7031C128.217 31.4844 129.474 31.875 131.068 31.875C131.959 31.875 132.857 31.7578 133.763 31.5234C134.67 31.2891 135.56 30.9844 136.435 30.6094C137.31 30.2188 138.154 29.7812 138.967 29.2969C139.795 28.7969 140.568 28.2891 141.287 27.7734C142.615 26.8047 143.818 25.8438 144.896 24.8906C145.974 23.9219 147.045 22.9062 148.107 21.8438L149.373 20.5781C150.138 19.9062 150.693 19.5703 151.037 19.5703C151.224 19.5703 151.318 19.7188 151.318 20.0156ZM133.412 15.3516C133.396 15.1172 133.357 14.8906 133.295 14.6719C133.248 14.4375 133.17 14.2344 133.06 14.0625C132.951 13.8906 132.826 13.7578 132.685 13.6641C132.545 13.5547 132.381 13.5 132.193 13.5C131.365 13.5469 130.537 14.0547 129.709 15.0234C128.881 15.9766 128.099 17.2422 127.365 18.8203C127.193 19.1641 127.037 19.5547 126.896 19.9922C126.771 20.4141 126.646 20.8516 126.521 21.3047C126.412 21.7422 126.31 22.1797 126.217 22.6172C126.138 23.0547 126.068 23.4453 126.006 23.7891C126.818 23.1797 127.568 22.6172 128.256 22.1016C128.943 21.5859 129.584 21.0547 130.177 20.5078C130.552 20.1641 130.935 19.7969 131.326 19.4062C131.717 19 132.068 18.5781 132.381 18.1406C132.709 17.7031 132.967 17.25 133.154 16.7812C133.342 16.3125 133.427 15.8359 133.412 15.3516ZM175.659 20.0625C175.659 20.625 175.456 21.1328 175.05 21.5859C174.909 21.7422 174.691 21.9531 174.394 22.2188C174.097 22.4688 173.831 22.7109 173.597 22.9453L171.441 25.1016C171.034 25.5078 170.652 25.875 170.292 26.2031C169.948 26.5156 169.644 26.7891 169.378 27.0234C168.925 27.3984 168.378 27.8516 167.738 28.3828C167.113 28.8984 166.386 29.5 165.558 30.1875C163.933 31.5312 162.433 32.6328 161.058 33.4922C159.683 34.3359 158.206 35.0156 156.628 35.5312C155.066 36.0312 153.409 36.2812 151.659 36.2812C150.581 36.3125 149.613 36.125 148.753 35.7188C147.909 35.3125 147.191 34.7656 146.597 34.0781C146.019 33.375 145.573 32.5547 145.261 31.6172C144.964 30.6797 144.823 29.6875 144.839 28.6406C144.839 26.5625 145.277 24.4844 146.152 22.4062C147.042 20.3281 148.222 18.2812 149.691 16.2656C150.488 15.2031 151.448 14.1875 152.573 13.2188C153.683 12.25 154.691 11.7656 155.597 11.7656C156.081 11.7656 156.636 12.1719 157.261 12.9844C157.573 13.3906 157.87 13.8281 158.152 14.2969C158.433 14.75 158.691 15.2344 158.925 15.75C159.394 16.7656 159.628 17.5 159.628 17.9531C159.628 18.4062 159.488 18.9922 159.206 19.7109C158.925 20.4297 158.589 20.7891 158.198 20.7891C157.636 20.7891 157.167 20.4062 156.792 19.6406C156.605 19.25 156.464 18.9219 156.37 18.6562C156.292 18.375 156.198 18.0781 156.089 17.7656C155.73 16.8281 155.425 16.1562 155.175 15.75C154.144 15.9375 153.284 16.4453 152.597 17.2734C152.269 17.6797 151.925 18.1719 151.566 18.75C151.222 19.3125 150.855 19.9531 150.464 20.6719C150.152 21.2344 149.863 21.8672 149.597 22.5703C149.331 23.2734 149.105 24 148.917 24.75C148.73 25.4844 148.581 26.2266 148.472 26.9766C148.363 27.7109 148.308 28.3984 148.308 29.0391C148.308 29.9453 148.698 30.8281 149.48 31.6875C150.277 32.5156 151.136 32.9297 152.058 32.9297C154.058 32.9297 155.956 32.5781 157.753 31.875C159.55 31.1719 161.277 30.2344 162.933 29.0625C164.573 27.9219 166.238 26.5859 167.925 25.0547C168.769 24.2891 169.566 23.5703 170.316 22.8984C171.081 22.2109 171.808 21.5547 172.495 20.9297C173.636 19.9297 174.581 19.4297 175.331 19.4297C175.55 19.4297 175.659 19.6406 175.659 20.0625ZM195.594 15.9141C195.594 16.1953 195.555 16.4375 195.477 16.6406C195.399 16.8438 195.29 17.0156 195.149 17.1562C195.008 17.2969 194.844 17.4297 194.657 17.5547C194.469 17.6641 194.274 17.7734 194.071 17.8828C193.555 18.1172 192.938 18.3125 192.219 18.4688C191.516 18.625 190.782 18.7656 190.016 18.8906C189.266 19 188.516 19.1016 187.766 19.1953C187.032 19.2734 186.36 19.3594 185.751 19.4531C184.61 19.625 183.602 19.7656 182.727 19.875C181.852 19.9688 181.094 20.0625 180.454 20.1562C179.813 20.25 179.282 20.3516 178.86 20.4609C178.438 20.5703 178.102 20.7266 177.852 20.9297C177.524 22.3516 177.18 23.7969 176.821 25.2656C176.477 26.7188 176.18 28.0859 175.93 29.3672C175.883 29.5859 175.829 29.8203 175.766 30.0703C175.719 30.3047 175.665 30.5547 175.602 30.8203C175.493 31.3672 175.407 31.8516 175.344 32.2734C175.282 32.6797 175.251 33.0703 175.251 33.4453C175.251 33.9766 175.305 34.4062 175.415 34.7344C175.477 34.9062 175.548 35.1328 175.626 35.4141C175.704 35.6797 175.805 35.9922 175.93 36.3516C176.18 37.0859 176.305 37.6094 176.305 37.9219C176.305 38.4219 176.102 38.9609 175.696 39.5391C175.305 40.1172 174.868 40.4062 174.383 40.4062C173.868 40.4062 173.337 40.0156 172.79 39.2344C172.524 38.8438 172.29 38.4531 172.087 38.0625C171.883 37.6875 171.704 37.3047 171.548 36.9141C171.298 36.1641 171.173 35.4297 171.173 34.7109C171.173 34.5547 171.18 34.3984 171.196 34.2422C171.212 34.0703 171.235 33.8906 171.266 33.7031C171.329 33.3594 171.423 32.9297 171.548 32.4141C171.61 32.1641 171.657 31.9531 171.688 31.7812C171.735 31.5938 171.774 31.4453 171.805 31.3359C172.18 29.6016 172.493 28.1484 172.743 26.9766C173.008 25.8047 173.204 24.8906 173.329 24.2344C173.657 22.7656 173.821 21.9375 173.821 21.75C173.821 21.5 173.727 21.3125 173.54 21.1875C173.368 21.0469 173.157 20.9766 172.907 20.9766C172.61 20.9766 172.274 20.9922 171.899 21.0234C171.524 21.0391 171.11 21.0781 170.657 21.1406C170.204 21.2031 169.829 21.25 169.532 21.2812C169.235 21.2969 169.016 21.3047 168.876 21.3047C168.313 21.3047 167.798 21.2188 167.329 21.0469C166.876 20.875 166.485 20.6328 166.157 20.3203C165.813 19.9922 165.548 19.6094 165.36 19.1719C165.173 18.7188 165.079 18.2109 165.079 17.6484C165.516 17.7109 165.962 17.7578 166.415 17.7891C166.883 17.8047 167.368 17.8125 167.868 17.8125C168.087 17.8125 168.415 17.8047 168.852 17.7891C169.305 17.7578 169.868 17.7109 170.54 17.6484C171.227 17.5859 171.813 17.5391 172.298 17.5078C172.798 17.4766 173.204 17.4609 173.516 17.4609C173.891 17.4609 174.305 16.8828 174.758 15.7266C174.977 15.1328 175.18 14.5312 175.368 13.9219C175.571 13.3125 175.751 12.6797 175.907 12.0234C176.079 11.3672 176.219 10.7891 176.329 10.2891C176.454 9.77344 176.555 9.33594 176.633 8.97656C176.665 8.88281 176.735 8.53906 176.844 7.94531C176.923 7.63281 176.985 7.34375 177.032 7.07812C177.094 6.79688 177.141 6.54687 177.173 6.32812C177.282 5.73438 177.399 5.1875 177.524 4.6875C177.665 4.1875 177.821 3.73437 177.993 3.32812C178.337 2.51562 178.891 2.10938 179.657 2.10938C180.813 2.10938 181.391 2.75 181.391 4.03125C181.391 4.82812 181.219 5.74219 180.876 6.77344C179.391 11.5078 178.649 14.3984 178.649 15.4453C178.649 16.0234 178.938 16.3125 179.516 16.3125C180.938 16.3125 182.376 16.2812 183.829 16.2188C185.298 16.1406 186.719 16.0391 188.094 15.9141C188.813 15.8516 189.446 15.7891 189.993 15.7266C190.555 15.6484 191.071 15.5781 191.54 15.5156C192.008 15.4375 192.454 15.3672 192.876 15.3047C193.313 15.2422 193.774 15.1797 194.258 15.1172C194.352 15.1016 194.469 15.0938 194.61 15.0938C194.766 15.0781 194.915 15.0938 195.055 15.1406C195.196 15.1875 195.321 15.2734 195.43 15.3984C195.54 15.5078 195.594 15.6797 195.594 15.9141ZM199.475 1.875C199.475 2.89062 199.209 3.75781 198.678 4.47656C198.162 5.19531 197.404 5.55469 196.404 5.55469C195.779 5.55469 195.084 5.46094 194.318 5.27344C193.568 5.08594 193.193 4.78125 193.193 4.35938C193.193 3.59375 193.428 2.86719 193.897 2.17969C194.381 1.47656 194.959 0.90625 195.631 0.46875C196.178 0.15625 196.529 0 196.686 0C197.576 0 198.264 0.125 198.748 0.375C199.232 0.609375 199.475 1.10937 199.475 1.875ZM214.826 20.9297V20.9766C214.826 21.3203 214.67 21.7734 214.357 22.3359C214.045 22.8984 213.623 23.5312 213.092 24.2344C212.576 24.9375 211.975 25.6875 211.287 26.4844C210.6 27.2812 209.881 28.0859 209.131 28.8984C208.24 29.8359 207.311 30.7422 206.342 31.6172C205.389 32.4766 204.35 33.3125 203.225 34.125C201.037 35.75 199.084 36.5625 197.365 36.5625C195.475 36.5625 194.006 35.9297 192.959 34.6641C191.912 33.3828 191.201 31.8359 190.826 30.0234C190.451 28.2266 190.264 26.375 190.264 24.4688C190.264 23.6719 190.357 22.4297 190.545 20.7422C190.639 19.8984 190.732 19.1719 190.826 18.5625C190.92 17.9531 191.022 17.4609 191.131 17.0859C191.35 16.3516 191.811 15.7109 192.514 15.1641C193.232 14.5859 193.982 14.2969 194.764 14.2969C195.186 14.2969 195.397 14.6953 195.397 15.4922C195.397 16.0234 195.342 16.625 195.232 17.2969C195.139 17.9688 195.037 18.6328 194.928 19.2891C194.725 20.5234 194.576 21.6328 194.482 22.6172C194.389 23.5859 194.342 24.4297 194.342 25.1484C194.342 26.7422 194.561 28.3359 194.998 29.9297C195.436 31.5703 196.225 32.3906 197.365 32.3906C198.522 32.3906 199.865 31.9688 201.397 31.125C202.162 30.6875 202.928 30.2031 203.693 29.6719C204.459 29.1406 205.225 28.5469 205.99 27.8906C206.787 27.2344 207.537 26.5781 208.24 25.9219C208.943 25.25 209.647 24.5625 210.35 23.8594C211.053 23.1562 211.67 22.5 212.201 21.8906C212.748 21.2812 213.225 20.7188 213.631 20.2031C213.662 20.1406 213.725 20.0234 213.818 19.8516C213.912 19.6797 213.998 19.5938 214.076 19.5938L214.123 19.6172C214.248 19.6172 214.342 19.6641 214.404 19.7578C214.467 19.8359 214.537 19.9609 214.615 20.1328C214.772 20.4766 214.842 20.7422 214.826 20.9297ZM250.582 19.4297C250.582 19.7266 250.527 20.0312 250.417 20.3438C250.324 20.6406 250.199 20.9453 250.042 21.2578C249.902 21.5547 249.738 21.8516 249.55 22.1484C249.363 22.4297 249.183 22.7031 249.011 22.9688C248.558 23.6719 248.027 24.3906 247.417 25.125C246.808 25.8438 246.152 26.5469 245.449 27.2344C244.761 27.9219 244.05 28.5703 243.316 29.1797C242.582 29.7891 241.863 30.3281 241.16 30.7969C240.597 31.1719 240.058 31.5234 239.542 31.8516C239.042 32.1797 238.535 32.4609 238.019 32.6953C237.503 32.9297 236.964 33.1172 236.402 33.2578C235.839 33.3984 235.222 33.4688 234.55 33.4688C233.253 33.4688 232.199 33.1406 231.386 32.4844C230.98 32.1562 230.621 31.7344 230.308 31.2188C230.011 30.6875 229.746 30.1016 229.511 29.4609C229.292 28.8203 229.097 28.1406 228.925 27.4219C228.769 26.7031 228.636 25.9922 228.527 25.2891C228.386 24.4141 228.253 23.6328 228.128 22.9453C228.003 22.2422 227.855 21.6562 227.683 21.1875C227.527 20.7031 227.332 20.3359 227.097 20.0859C226.863 19.8203 226.558 19.6875 226.183 19.6875C225.886 19.6875 225.605 19.7188 225.339 19.7812C225.074 19.8438 224.792 19.9688 224.496 20.1562C224.214 20.3438 223.902 20.6094 223.558 20.9531C223.214 21.2969 222.808 21.75 222.339 22.3125C221.886 22.875 221.363 23.5625 220.769 24.375C220.175 25.1875 219.48 26.1562 218.683 27.2812C218.292 27.8281 217.832 28.4297 217.3 29.0859C216.769 29.7422 216.222 30.3672 215.66 30.9609C215.113 31.5547 214.574 32.0781 214.042 32.5312C213.511 32.9844 213.042 33.2734 212.636 33.3984C211.261 33.1016 210.574 31.3906 210.574 28.2656C210.574 27.4375 210.667 26.1797 210.855 24.4922C210.949 23.7266 211.058 22.9297 211.183 22.1016C211.308 21.2578 211.464 20.4219 211.652 19.5938C211.839 18.75 212.05 17.9375 212.285 17.1562C212.535 16.3594 212.824 15.625 213.152 14.9531C213.308 14.6406 213.472 14.3984 213.644 14.2266C213.816 14.0391 213.988 13.9062 214.16 13.8281C214.347 13.7344 214.535 13.6797 214.722 13.6641C214.925 13.6328 215.128 13.6172 215.332 13.6172C215.582 13.6172 215.8 13.7891 215.988 14.1328C216.191 14.4766 216.292 14.9531 216.292 15.5625C216.292 15.9375 216.261 16.2891 216.199 16.6172C216.136 16.9453 216.05 17.2812 215.941 17.625C215.832 17.9688 215.714 18.3438 215.589 18.75C215.464 19.1406 215.339 19.5938 215.214 20.1094C215.121 20.5312 215.011 21 214.886 21.5156C214.777 22.0312 214.667 22.5547 214.558 23.0859C214.464 23.6172 214.378 24.1406 214.3 24.6562C214.238 25.1562 214.207 25.6094 214.207 26.0156C214.207 26.2969 214.253 26.5859 214.347 26.8828C214.785 26.8359 215.503 26.1797 216.503 24.9141C217.019 24.2734 217.582 23.5703 218.191 22.8047C218.816 22.0391 219.488 21.1953 220.207 20.2734C220.738 19.5859 221.261 18.9453 221.777 18.3516C222.308 17.7578 222.855 17.2422 223.417 16.8047C223.98 16.3516 224.574 16 225.199 15.75C225.839 15.4844 226.542 15.3516 227.308 15.3516C228.121 15.3516 228.792 15.5312 229.324 15.8906C229.871 16.2344 230.308 16.7188 230.636 17.3438C230.964 17.9531 231.214 18.6875 231.386 19.5469C231.574 20.4062 231.722 21.3516 231.832 22.3828C231.925 23.2578 232.011 24.125 232.089 24.9844C232.183 25.8438 232.355 26.6172 232.605 27.3047C232.855 27.9766 233.214 28.5234 233.683 28.9453C234.152 29.3672 234.824 29.5781 235.699 29.5781C236.371 29.5781 237.074 29.4219 237.808 29.1094C238.542 28.7969 239.316 28.3672 240.128 27.8203C240.941 27.2578 241.777 26.6016 242.636 25.8516C243.511 25.1016 244.41 24.2812 245.332 23.3906C245.691 23.0469 246.082 22.6172 246.503 22.1016C246.941 21.5703 247.363 21.0625 247.769 20.5781C248.191 20.0938 248.582 19.6797 248.941 19.3359C249.3 18.9922 249.589 18.8203 249.808 18.8203C249.902 18.8203 250.05 18.8672 250.253 18.9609C250.472 19.0547 250.582 19.2109 250.582 19.4297ZM264.493 14.0156C264.493 14.2344 264.431 14.5234 264.306 14.8828C264.181 15.2266 264.04 15.7109 263.884 16.3359C263.743 16.9453 263.61 17.7344 263.485 18.7031C263.36 19.6562 263.298 20.8438 263.298 22.2656C263.298 22.5312 263.29 23.2266 263.274 24.3516C263.259 25.4766 263.251 26.875 263.251 28.5469C263.251 32.2344 262.79 35.3281 261.868 37.8281C260.962 40.3438 259.696 42.3516 258.071 43.8516C257.587 44.3047 257.079 44.7031 256.548 45.0469C256.032 45.4062 255.47 45.7109 254.86 45.9609C254.251 46.2266 253.587 46.4219 252.868 46.5469C252.149 46.6875 251.352 46.7578 250.477 46.7578C249.774 46.7578 249.009 46.6172 248.181 46.3359C247.368 46.0547 246.548 45.6953 245.72 45.2578C244.892 44.8359 244.095 44.3672 243.329 43.8516C242.579 43.3359 241.907 42.8359 241.313 42.3516C240.72 41.8672 240.251 41.4297 239.907 41.0391C239.548 40.6641 239.368 40.3984 239.368 40.2422C239.368 39.8984 239.446 39.6016 239.602 39.3516C239.743 39.1172 240.017 39 240.423 39C240.845 39 241.345 39.1484 241.923 39.4453C242.501 39.7422 243.063 40.0703 243.61 40.4297C244.157 40.7891 244.782 41.1484 245.485 41.5078C246.204 41.8828 246.915 42.2266 247.618 42.5391C248.321 42.8516 248.985 43.1016 249.61 43.2891C250.235 43.4922 250.735 43.5938 251.11 43.5938C252.048 43.5938 252.845 43.4844 253.501 43.2656C254.157 43.0625 254.727 42.7734 255.212 42.3984C255.696 42.0234 256.11 41.5859 256.454 41.0859C256.798 40.5859 257.134 40.0391 257.462 39.4453C257.852 38.7734 258.181 37.9531 258.446 36.9844C258.727 36.0312 258.954 34.9766 259.126 33.8203C259.313 32.6641 259.454 31.4297 259.548 30.1172C259.642 28.8047 259.704 27.4688 259.735 26.1094C258.985 26.9062 258.095 27.7109 257.063 28.5234C256.032 29.3359 254.931 30.0625 253.759 30.7031C252.602 31.3438 251.415 31.8672 250.196 32.2734C248.977 32.6797 247.806 32.8828 246.681 32.8828C246.009 32.8828 245.462 32.7031 245.04 32.3438C244.618 31.9688 244.282 31.5312 244.032 31.0312C243.798 30.5312 243.634 30.0234 243.54 29.5078C243.446 28.9922 243.392 28.5938 243.376 28.3125V28.1719C243.376 27.6719 243.477 27.0859 243.681 26.4141C243.899 25.7422 244.181 25.0469 244.524 24.3281C244.868 23.5938 245.251 22.875 245.673 22.1719C246.11 21.4531 246.532 20.7969 246.938 20.2031C247.61 19.2188 248.438 18.1953 249.423 17.1328C250.407 16.0703 251.477 15.1016 252.634 14.2266C253.806 13.3359 255.04 12.6094 256.337 12.0469C257.649 11.4687 258.962 11.1797 260.274 11.1797C260.915 11.1797 261.493 11.2578 262.009 11.4141C262.524 11.5547 262.962 11.7578 263.321 12.0234C263.696 12.2734 263.985 12.5703 264.188 12.9141C264.392 13.2578 264.493 13.625 264.493 14.0156ZM260.415 14.6719C260.29 14.5625 260.126 14.4844 259.923 14.4375C259.735 14.3906 259.517 14.3672 259.267 14.3672C258.72 14.3672 258.118 14.4766 257.462 14.6953C256.806 14.8984 256.235 15.1797 255.751 15.5391C254.72 16.3359 253.806 17.1484 253.009 17.9766C252.212 18.7891 251.462 19.6406 250.759 20.5312C250.54 20.8125 250.282 21.1719 249.985 21.6094C249.704 22.0312 249.415 22.5078 249.118 23.0391C248.837 23.5547 248.556 24.0938 248.274 24.6562C247.993 25.2188 247.735 25.7812 247.501 26.3438C247.282 26.8906 247.102 27.4219 246.962 27.9375C246.837 28.4375 246.774 28.8828 246.774 29.2734C247.118 29.3984 247.501 29.4609 247.923 29.4609C248.376 29.4609 248.829 29.4062 249.282 29.2969C249.735 29.1875 250.188 29.0469 250.642 28.875C251.095 28.7031 251.556 28.5078 252.024 28.2891C252.493 28.0703 252.977 27.8516 253.477 27.6328C253.915 27.4453 254.384 27.2031 254.884 26.9062C255.384 26.6094 255.892 26.2891 256.407 25.9453C256.923 25.5859 257.438 25.2188 257.954 24.8438C258.47 24.4531 258.954 24.0781 259.407 23.7188C259.517 23.5938 259.618 23.3359 259.712 22.9453C259.806 22.5391 259.884 22.0625 259.946 21.5156C260.024 20.9688 260.087 20.375 260.134 19.7344C260.181 19.0938 260.22 18.4609 260.251 17.8359C260.298 17.2109 260.329 16.625 260.345 16.0781C260.376 15.5156 260.399 15.0469 260.415 14.6719Z" fill="#8689E9"/>
</svg>
