<svg width="72" height="25" viewBox="0 0 72 25" fill="none" xmlns="http://www.w3.org/2000/svg">
<g clip-path="url(#clip0_85_1288)">
<path d="M3.38865 6.66336C3.90554 6.66336 4.24469 6.74836 4.44027 6.88766L4.44329 6.88993L4.44665 6.89189C4.64796 7.02226 4.85568 7.28506 5.05894 7.71026L5.06059 7.71349L5.06227 7.71709L9.60263 16.1637L9.7551 16.4479L9.90692 16.1634L14.9754 6.66336H15.7841C16.4875 6.66336 16.9304 6.81649 17.1699 7.07483L17.1729 7.07809L17.1762 7.08103C17.4336 7.33099 17.5824 7.75989 17.5824 8.41013V24.8333H15.019V11.07L14.6949 10.9935L10.3466 19.1634H8.77922L4.57466 11.0882L4.25025 11.1634V24.8333H1.9268V6.66336H3.38865ZM3.21236 1.16663C4.34953 1.16663 5.2714 2.06206 5.2714 3.16663C5.2714 4.2712 4.34953 5.16663 3.21236 5.16663C2.07519 5.16663 1.15332 4.2712 1.15332 3.16663C1.15332 2.06206 2.07519 1.16663 3.21236 1.16663ZM16.253 1.16663C17.3901 1.16663 18.312 2.06206 18.312 3.16663C18.312 4.2712 17.3901 5.16663 16.253 5.16663C15.1158 5.16663 14.1939 4.2712 14.1939 3.16663C14.1939 2.06206 15.1158 1.16663 16.253 1.16663Z" fill="#13131B" stroke="#13131B"/>
<path d="M69.0518 25V8.08264H71.8191V25H69.0518Z" fill="#13131B"/>
<path d="M64.5896 8.08264C65.2485 8.08264 65.7097 8.22488 65.9733 8.50931C66.2513 8.77954 66.3906 9.22044 66.3906 9.83198V25H63.7331V12.264L59.7138 19.816H58.0886L54.2011 12.3493V25H51.7632V8.08264H53.2567C53.7399 8.08264 54.0913 8.16088 54.3109 8.31731C54.5305 8.45954 54.7354 8.72978 54.9259 9.12798L59.0769 16.8506L63.755 8.08264H64.5896Z" fill="#13131B"/>
<path d="M47.762 8.08264C48.4209 8.08264 48.8821 8.22488 49.1457 8.50931C49.424 8.77954 49.563 9.22044 49.563 9.83198V25H46.9054V12.264L42.8862 19.816H41.2609L37.3735 12.3493V25H34.9355V8.08264H36.429C36.9122 8.08264 37.2636 8.16088 37.4833 8.31731C37.7029 8.45954 37.9081 8.72978 38.0982 9.12798L42.2493 16.8506L46.9274 8.08264H47.762Z" fill="#13131B"/>
<path d="M29.4648 25V8.08264H32.2322V25H29.4648Z" fill="#13131B"/>
</g>
<defs>
<clipPath id="clip0_85_1288">
<rect width="72" height="25" fill="white"/>
</clipPath>
</defs>
</svg>
